<?xml version="1.0" encoding="UTF-8"?>
<svg id="Capa_1" data-name="Capa 1" xmlns="http://www.w3.org/2000/svg" viewBox="0 0 16 16">
  <defs>
    <style>
      .cls-1 {
        fill: #fff;
      }

      .cls-2 {
        fill: #1ee674;
      }
    </style>
  </defs>
  <path class="cls-2" d="M11.2,12.3v2.7c.2,0,.4-.1.5-.3l2.9-2.9c.1-.2.2-.3.3-.5h-2.7c-.4,0-1.1.6-1.1,1.1l.1-.1Z"/>
  <path class="cls-1" d="M8,9.6h-2.6c-.7.1-.8,1.1,0,1.3h2.7c.8-.1.8-1.2,0-1.3h-.1Z"/>
  <path class="cls-1" d="M10.6,4.8h-5.2c-.8.1-.8,1.1,0,1.3h5.2c.8-.1.8-1.2,0-1.3Z"/>
  <path class="cls-1" d="M11.7,6.7c.3-.3.5-.7.5-1.2,0-.8-.7-1.5-1.6-1.6h-5.3c-.8.1-1.4.8-1.4,1.6,0,.5.2.9.5,1.2-.3.3-.5.7-.5,1.2s.2.9.5,1.2c-.3.3-.5.7-.5,1.1,0,.8.5,1.5,1.3,1.7h3c.9-.1,1.5-.8,1.4-1.7,0-.2,0-.5-.2-.7h1.3c.8-.1,1.4-.8,1.4-1.7,0-.5-.2-.9-.5-1.2l.1.1Z"/>
  <path class="cls-1" d="M10.6,7.2h-5.2c-.8.1-.8,1.2,0,1.3h5.2c.8-.1.8-1.2,0-1.3Z"/>
  <path class="cls-2" d="M12.8,1H3.3c-1.2.2-2.1,1.1-2.3,2.2v9.5c.2,1.2,1.2,2.2,2.5,2.2h6.4v-2.7c0-1.3,1.1-2.3,2.4-2.4h2.7V3.5c0-1.3-1-2.3-2.2-2.5h0ZM5.4,4.8h5.2c.8,0,.8,1.2,0,1.3h-5.2c-.8-.1-.7-1.2,0-1.3ZM8.1,10.9h-2.7c-.7-.2-.7-1.2,0-1.3h2.6c.8,0,.9,1.1,0,1.3h.1ZM5.4,8.5c-.8-.1-.7-1.2,0-1.3h5.2c.8,0,.8,1.2,0,1.3h-5.2Z"/>
</svg>